<?xml version="1.0" encoding="utf-8"?>
<!-- Generator: Adobe Illustrator 19.0.0, SVG Export Plug-In . SVG Version: 6.00 Build 0)  -->
<svg version="1.1" id="Layer_1" xmlns="http://www.w3.org/2000/svg" xmlns:xlink="http://www.w3.org/1999/xlink" x="0px" y="0px"
	 viewBox="0 0 500 500" style="enable-background:new 0 0 500 500;" xml:space="preserve">
<style type="text/css">
	.st0{fill-rule:evenodd;clip-rule:evenodd;fill:#203061;}
	.st1{fill-rule:evenodd;clip-rule:evenodd;fill:#EC1C24;}
	.st2{fill-rule:evenodd;clip-rule:evenodd;fill:#FFFFFF;}
</style>
<g id="XMLID_1_">
	<path id="XMLID_12_" class="st0" d="M290.6,282.9c0.6,0.9,5.1,0.4,6,0.2c2-0.5,1.5-2,1.5-4.8c0-1.9-0.2-3.7-0.2-5.6
		c0-1,0.1-1.9,0-2.9c-0.2-7.6,1.5-13.4,5-17.5c2.4-2.9,5.3-3.9,5.8-4c1.9-0.4,3,0.1,3.3,1.5c0.5,2.1,0,3.8-1.4,5.2
		c-2,2-3,1.2-4.8,1.1c-1.2,0-1.2,0.5,0,1.6c4.9,4.4,12,3.2,12.9,3.1c8.4-1.1,13.4-6.9,14.5-7.1c1.1-0.2-0.5,4.4,3,6.1
		c4,1.8,13.3,0.9,18.3-3.2l3.2-2.7c1.3-1.1,0.2,2.9,6.2,6c6.9,3.7,19.1,0.8,19.5-8.8c0.1-2.8-2.3-4.1,0.7-4.7c4.4-0.8,3-0.3,6.8,7.6
		c1,2.1,1.7,3.4,2,3.9c0.7,1.2,1.5,2.9,3.5,2.5c2.6-0.6,7.3-5.8,7.7-6.4l2.5-3.1c0.3-0.3,0.7-0.2,1.2,0.4l6.9,8.1
		c0.7,0.8,1.6,1.1,2.9,1.1c1.4,0,3.1-0.7,5.1-2c3.6-2.3,6.3-4.5,8-6.6c1.9-2.3,2.5-3.9,1.7-4.5c-1.9-1.6-5.1,2.2-7.5,3.4
		c-6.4,2.9-9.9-8-12.4-9.4c-1.9-1-4.6,0.2-8.1,3.6l-3.1,3c-1.2,1.2-2.1-3-3-4.7c-0.7-1.2-1.3-2-1.8-2.3c-1.7-0.8-11.7,2.3-17.5,2.5
		l-4.6,0.2c-1.5,0.1,0.3,2.1,0.6,3.7c0.6,3.4-0.7,6.8-2.7,7.3c-3.6,0.9-4.6-4.9-4.3-6.9c0.7-5,6-5.8,6.4-6c1-0.7,0-1.5-2.3-1.8
		c-8.7-1-11.7,8.3-21.4,13.6c-7.5,4.1-5.3-1.1-5.6-4.3c-0.6-7.5,2.5-8-7.2-7.7c-0.7,0-3-0.3-3.6,1.3c-1,2.5,0.8,2.8-1.5,5.5
		c-2.8,3.3-5.9,5.3-9.3,6.1c-5,1.1-2.7-1.3-2.2-2.8c0.4-1.2,0.6-2.2,0.7-3c0.3-3.5-4.2-7.5-11.5-6.4c-6.4,0.9-11.4,6.6-11.6,6.7
		l-0.4,0.2h-0.2c-0.1,0-0.1-0.8-0.1-2.4c0.1-3.8,0.6-4.7-2.7-4.8c-3.9-0.2-4.1,0.5-4.7,1.3c-1.1,1.3-1.7,2.9-2.7,4.2
		c-2.8,3.8-4.9,5.5-6.2,5c-0.8-0.3-9.1-9.8-10.8-10.2c-1.5-0.3-2.9,0.3-4.2,1.8l-5.4,6.7c-0.4,0.5-1,0.4-1.6-0.4l-5.2-6.7
		c-1-1.2-3.9-2.3-6.2,0.5l-5.5,6.8c-0.3,0.4-0.8,0.3-1.4-0.4l-6.1-7.4c-0.2-0.2-1.5-1.2-3-0.6c-1.4,0.5-5.1,4.3-8.3,7.1
		c-1.2,1-2.2,2.2-3.5,3.2l-0.5,0.3c-1.2,0.6-2.3-1.9-3.3-3.1c-2-2.4-3.3-3.7-4.1-3.9c-3.7-1.1-3.3,4.4-3.9,6.3
		c-1.5,4.4-7.5,4.8-7.6,0.1c0-5.4,6.9-7.7,7.3-7.9c0.6-0.4,1.6-1.5-0.6-1.7c-4.3-0.4-8.9,1.1-14,4.4l-8.3,5.6
		c-3.7,2.5-6.4-6.5-7.4-8.1c-0.5-0.7-1.3-2.5-3.9-1.9c-1.1,0.3-2.9,1.6-5.5,3.9l-4.3,4c-0.3,0.3-0.6,0.2-0.8-0.2
		c-0.2-0.4-0.5-3.2-0.6-8.4c-0.1-3.2,0.1-6.4-0.1-9.5c-0.1-1.8-0.3-1.9,0-5.9c0-0.4,0.1-0.7,0.1-1.1c0-1.4-1.1-1.1-3.8-1.2
		c-2.5-0.1-4.4-0.4-4.4,1.2l-0.6,13.8c-0.4,8.8-0.1,14.9,1,18.1c0.8,2.6,2,4,3.7,4.2c4.6,0.7,8.8-5.9,9.5-6.7
		c0.6-0.6,1.2-1.5,2.4-0.2c0.8,0.9,1.2,2.1,2,3.1c2.7,3.7,3.7,3.7,6.4,3.7c4.8-0.1,9.7-5.1,10.8-5.6c1.4-0.7,1.2,0.8,1.5,1.4
		c1.2,3.2,5.5,5.5,10.6,4.4c6.3-1.4,6.4-4.7,8.4-4c1.3,0.4,2.8,4.7,6.2,4.3c1.9-0.2,6.3-4.2,9.1-6.2c2-1.5,3.2-2.3,3.5-2.5
		c1.9-1.1,2.1,1.5,6.5,6.5c1.6,1.8,3.4,3.6,7.2-0.3l5.7-5.7c1.3-1.3,3,2.8,7,6.8c0.3,0.3,0.5,0.6,0.8,0.8c1.3,0.9,3,0.1,5.3-2.5
		l4.5-5.1c0.4-0.4,0.9-0.3,1.6,0.3c2.6,2.4,5.7,7.3,8.3,7.5c2.3,0.2,5.4-1.3,9.4-4.5l3.8-3.1c1.2-1,0.4,2.3,0.9,9.1
		c0.2,2.2,0.2,4.9,0.1,7.9C289.5,276.6,290.4,282.7,290.6,282.9z"/>
	<path id="XMLID_13_" class="st0" d="M101.9,267.4c5,0.6,10,0.6,15.1,0.1c4.6-0.5,8.4-1.2,11.5-2.1c9.4-2.8,16.1-7.6,19.3-11.5
		c2.4-2.9-0.8-0.9-2.7-0.2c-5.9,2.3-12,3.9-18.2,4.9c-5.7,0.9-4.9,0.5-4.9-1.7c-0.2-9.8,0.4-19.6,0.1-29.3c-0.1-2.6,0-2.5,2.9-2.2
		c5.3,0.5,11,1.8,17.1,3.9c1.1,0.4,5.8,3,3.1-1.2c-5.9-9-24.7-11.1-31-11.3c-38.5-1.4-57.6,23.1-40,39.5
		C80.7,262.3,90,266.1,101.9,267.4z"/>
	<path id="XMLID_14_" class="st1" d="M94.4,225.2c0.7-0.2,1.3-0.3,2-0.2c0.9,0.1,0.9,0.5,1,1.2l-0.1,31.7c0,0.4-0.1,0.6-0.3,0.8
		c-0.5,0.3-5.5-0.3-8.1-1.1c-3.3-1-10.1-3.9-12.9-9.8c-1.5-3.2-1.4-6.9-1.2-7.7C76.3,231.5,85.6,226.4,94.4,225.2z"/>
	<path id="XMLID_15_" class="st0" d="M337,238.1c1.4,0.4,7.2,0.5,7.9-3.7c0.7-4.2-6.3-6.5-10.3-3.4
		C332.3,232.7,331.7,236.8,337,238.1z"/>
	<path id="XMLID_16_" class="st0" d="M423.6,238.1c2,0,3.6-1.6,3.6-3.6c0-2-1.6-3.6-3.6-3.6c-2,0-3.6,1.6-3.6,3.6
		C420,236.4,421.6,238.1,423.6,238.1z"/>
	<path id="XMLID_17_" class="st2" d="M423.6,237.6c-1.7,0-3.1-1.4-3.1-3c0-1.7,1.4-3.1,3-3.1c1.7,0,3.1,1.4,3.1,3.1
		C426.7,236.2,425.3,237.6,423.6,237.6z"/>
	<path id="XMLID_18_" class="st0" d="M422,236.5h0.8v-1.7h0.8c0.4,0,0.7,0.3,0.7,1c0,0.5,0,0.5,0.1,0.7h0.8c-0.1-0.4,0-0.8-0.1-1.2
		c-0.1-0.4-0.4-0.7-0.7-0.7c0.5-0.1,0.8-0.5,0.8-1c0-0.6-0.5-1.1-1.2-1.1H422V236.5z"/>
	<path id="XMLID_19_" class="st2" d="M422.9,234.3v-1.2h1c0.4,0,0.6,0.3,0.6,0.6c0,0.3-0.3,0.6-0.6,0.6L422.9,234.3z"/>
</g>
</svg>
